<svg xmlns="http://www.w3.org/2000/svg" viewBox="0 0 100 100" width="100%" height="100%" fill="none" stroke="currentColor">
  <defs>
    <linearGradient id="learning-grad" x1="0%" y1="0%" x2="100%" y2="100%">
      <stop offset="0%" stop-color="#bfdbfe" />
      <stop offset="100%" stop-color="#2563eb" />
    </linearGradient>
  </defs>
  
  <!-- Outer circle border -->
  <circle cx="50" cy="50" r="45" stroke="#e2e8f0" stroke-width="1.5" fill="#fafaf9" />

  <!-- Book Pages / Base -->
  <path d="M 50 68 C 40 64, 25 64, 18 67 L 18 36 C 25 33, 40 33, 50 37 C 60 33, 75 33, 82 36 L 82 67 C 75 64, 60 64, 50 68 Z" fill="#ffffff" stroke="#12344E" stroke-width="1.5" stroke-linejoin="round" />
  
  <!-- Spine Line -->
  <line x1="50" y1="37" x2="50" y2="68" stroke="#12344E" stroke-width="1.5" />

  <!-- Growing sprout out of book -->
  <path d="M 50 37 C 50 25, 43 23, 40 20 C 44 24, 48 27, 50 37 Z" fill="#016A77" stroke="#016A77" stroke-width="1" />
  <path d="M 50 33 C 50 21, 57 19, 60 16 C 56 20, 52 23, 50 33 Z" fill="#016A77" stroke="#016A77" stroke-width="1" />
  <circle cx="50" cy="37" r="1.5" fill="#016A77" />
</svg>
